<svg
  width="24"
  height="24"
  viewBox="0 0 24 24"
  fill="none"
  xmlns="http://www.w3.org/2000/svg"
>
  <rect width="24" height="24" rx="3" fill="black" />
  <path
    d="M18.821 11.5474C18.5633 11.5474 18.3057 11.5246 18.0631 11.4716C16.5777 11.1684 15.4105 10.0013 15.1073 8.51579C15.0543 8.27326 15.0315 8.01558 15.0315 7.75789C15.0315 7.50021 15.0543 7.24253 15.1073 7H8.8926C8.94565 7.24253 8.96839 7.50021 8.96839 7.75789C8.96839 8.01558 8.94565 8.27326 8.8926 8.51579C8.58944 10.0013 7.42228 11.1684 5.93681 11.4716C5.69428 11.5246 5.4366 11.5474 5.17892 11.5474C4.92123 11.5474 4.66355 11.5246 4.42102 11.4716V13.1389C4.66355 13.0859 4.92123 13.0632 5.17892 13.0632C5.39113 13.0632 5.59576 13.0783 5.80039 13.1162C5.84586 13.1238 5.89134 13.1314 5.93681 13.1389C6.05049 13.1617 6.16418 13.192 6.27786 13.2223C6.62649 13.3284 6.95239 13.48 7.24797 13.6771C7.31618 13.7225 7.38439 13.768 7.44502 13.8135C7.56628 13.912 7.68755 14.0105 7.80123 14.1166C7.8846 14.2 7.96797 14.2834 8.04376 14.3743C8.12713 14.4653 8.20292 14.5562 8.26355 14.6547C8.3166 14.7229 8.36965 14.7987 8.40755 14.8745C8.49092 15.0034 8.55913 15.1322 8.61976 15.2686C8.67281 15.3823 8.71828 15.4884 8.75618 15.6021C8.79407 15.6931 8.81681 15.7916 8.83955 15.8825C8.8547 15.928 8.86228 15.9659 8.87744 16.0114C8.88502 16.0417 8.8926 16.0644 8.8926 16.0947C8.9001 16.1251 8.90776 16.1554 8.90776 16.1857C8.92292 16.2766 8.93807 16.3676 8.94565 16.4661C8.96081 16.5949 8.96839 16.7238 8.96839 16.8526C8.96839 16.9133 8.96839 16.9815 8.96081 17.0421C8.95323 17.2392 8.93049 17.4211 8.8926 17.6105H15.1073C15.0543 17.368 15.0315 17.1103 15.0315 16.8526C15.0315 16.5949 15.0543 16.3373 15.1073 16.0947C15.4105 14.6093 16.5777 13.4421 18.0631 13.1389C18.3057 13.0859 18.5633 13.0632 18.821 13.0632C19.0787 13.0632 19.3364 13.0859 19.5789 13.1389V11.4716C19.3364 11.5246 19.0787 11.5474 18.821 11.5474ZM12 14.5789C10.7494 14.5789 9.72628 13.5558 9.72628 12.3053C9.72628 11.0547 10.7494 10.0316 12 10.0316C13.2505 10.0316 14.2737 11.0547 14.2737 12.3053C14.2737 13.5558 13.2505 14.5789 12 14.5789Z"
    fill="white"
  />
  <path
    d="M5.93681 9.89516V9.90274C5.9747 9.88758 6.02018 9.87242 6.05807 9.84968C6.17934 9.80421 6.29302 9.74358 6.39913 9.67537C6.46734 9.62989 6.53555 9.58442 6.59618 9.53137C6.72502 9.42526 6.84628 9.304 6.95239 9.17516C7.00544 9.11453 7.05092 9.04632 7.09639 8.97811C7.1646 8.872 7.22523 8.75832 7.2707 8.63705C7.29344 8.59916 7.3086 8.55368 7.32376 8.51579H7.31618C7.40713 8.28084 7.4526 8.02316 7.4526 7.75789C7.4526 7.49263 7.40713 7.23495 7.31618 7H5.17892C4.76207 7 4.42102 7.34105 4.42102 7.75789V9.89516C4.65597 9.98611 4.91365 10.0316 5.17892 10.0316C5.44418 10.0316 5.70186 9.98611 5.93681 9.89516Z"
    fill="white"
  />
  <path
    d="M18.821 7H16.6837C16.5928 7.23495 16.5473 7.49263 16.5473 7.75789C16.5473 8.02316 16.5928 8.28084 16.6837 8.51579H16.6761C16.6913 8.55368 16.7065 8.59916 16.7292 8.63705C16.7747 8.75832 16.8353 8.872 16.9035 8.97811C16.949 9.04632 16.9945 9.11453 17.0475 9.17516C17.1536 9.304 17.2749 9.42526 17.4037 9.53137C17.4644 9.58442 17.5326 9.62989 17.6008 9.67537C17.7069 9.74358 17.8206 9.80421 17.9418 9.84968C17.9797 9.87242 18.0252 9.88758 18.0631 9.90274V9.89516C18.298 9.98611 18.5557 10.0316 18.821 10.0316C19.0862 10.0316 19.3439 9.98611 19.5789 9.89516V7.75789C19.5789 7.34105 19.2378 7 18.821 7Z"
    fill="white"
  />
  <path
    d="M18.0631 14.7154V14.7078C18.0252 14.7229 17.9797 14.7381 17.9418 14.7608C17.8206 14.8063 17.7069 14.8669 17.6008 14.9352C17.5326 14.9806 17.4644 15.0261 17.4037 15.0792C17.2749 15.1853 17.1536 15.3065 17.0475 15.4354C16.9945 15.496 16.9491 15.5642 16.9035 15.6324C16.8353 15.7385 16.7747 15.8522 16.7292 15.9735C16.7065 16.0114 16.6913 16.0568 16.6761 16.0947H16.6837C16.5928 16.3297 16.5473 16.5874 16.5473 16.8526C16.5473 17.1179 16.5928 17.3756 16.6837 17.6105H18.821C19.2378 17.6105 19.5789 17.2695 19.5789 16.8526V14.7154C19.3439 14.6244 19.0862 14.5789 18.821 14.5789C18.5557 14.5789 18.298 14.6244 18.0631 14.7154Z"
    fill="white"
  />
  <path
    d="M7.32376 16.0947C7.3086 16.0568 7.29344 16.0114 7.2707 15.9735C7.22523 15.8522 7.1646 15.7385 7.09639 15.6324C7.05092 15.5642 7.00544 15.496 6.95239 15.4354C6.84628 15.3065 6.72502 15.1853 6.59618 15.0792C6.53555 15.0261 6.46734 14.9806 6.39913 14.9352C6.29302 14.8669 6.17934 14.8063 6.05807 14.7608C6.02018 14.7381 5.9747 14.7229 5.93681 14.7078V14.7154C5.70186 14.6244 5.44418 14.5789 5.17892 14.5789C4.91365 14.5789 4.65597 14.6244 4.42102 14.7154V16.8526C4.42102 17.2695 4.76207 17.6105 5.17892 17.6105H7.31618C7.40713 17.3756 7.4526 17.1179 7.4526 16.8526C7.4526 16.5874 7.40713 16.3297 7.31618 16.0947H7.32376Z"
    fill="white"
  />
</svg>
